<?xml version="1.0" encoding="utf-8"?>
<!-- Generator: Adobe Illustrator 19.0.0, SVG Export Plug-In . SVG Version: 6.00 Build 0)  -->
<svg version="1.1" id="Ebene_1" xmlns="http://www.w3.org/2000/svg" xmlns:xlink="http://www.w3.org/1999/xlink" x="0px" y="0px"
	 viewBox="0 0 150.3 72.2" enable-background="new 0 0 150.3 72.2" xml:space="preserve">
<polygon fill="#BDBFBF" points="48.6,33.3 48.6,39.8 64.9,39.8 64.9,72.2 71.3,72.2 71.3,39.8 81.1,39.8 81.1,72.2 87.6,72.2 
	87.6,33.3 "/>
<rect x="48.6" y="33.3" fill="#C02F39" width="6.5" height="38.9"/>
<polygon fill="#BDBFBF" points="0,33.3 0,72.2 6.5,72.2 6.5,39.8 16.2,39.8 16.2,72.2 22.7,72.2 22.7,39.8 38.9,39.8 38.9,33.3 "/>
<rect x="32.4" y="33.3" fill="#C02F39" width="6.5" height="38.9"/>
<g>
	<path d="M71,11.2V7h-4.5v4.2H65V1.7h1.5v3.9H71V1.7h1.5v9.5H71z"/>
	<path d="M80.1,7.8h-4.4c0,1.6,0.7,2.3,2.1,2.3c0.7,0,1.5-0.2,2-0.4l0.1,1.2c-0.7,0.3-1.6,0.4-2.4,0.4c-2.2,0-3.4-1.1-3.4-3.6
		c0-2.1,1.1-3.7,3.2-3.7c2,0,2.8,1.4,2.8,3C80.1,7.3,80.1,7.5,80.1,7.8z M77.2,5.2c-0.8,0-1.4,0.6-1.6,1.6h3
		C78.6,5.8,78.1,5.2,77.2,5.2z"/>
	<path d="M85.3,5.6c-1.4-0.3-2.1,0.7-2.1,2.8v2.8h-1.5v-7h1.4c0,0.4,0,1-0.1,1.5h0c0.3-0.9,1-1.8,2.3-1.7L85.3,5.6z"/>
	<path d="M89.1,11.3c-1.5,0-1.9-0.6-1.9-2.1V5.4h-1.3V4.2h1.3V2l1.5-0.4v2.6h1.8v1.2h-1.8v3.3c0,1,0.2,1.3,0.9,1.3
		c0.3,0,0.6,0,0.9-0.1v1.2C90,11.3,89.5,11.3,89.1,11.3z"/>
	<path d="M92.7,3.2c-0.5,0-1-0.4-1-0.9c0-0.5,0.4-0.9,1-0.9c0.5,0,1,0.4,1,0.9C93.7,2.8,93.2,3.2,92.7,3.2z M92,11.2v-7h1.5v7H92z"
		/>
	<path d="M101,7.8h-4.4c0,1.6,0.7,2.3,2.1,2.3c0.7,0,1.5-0.2,2-0.4l0.1,1.2c-0.7,0.3-1.6,0.4-2.4,0.4c-2.2,0-3.4-1.1-3.4-3.6
		c0-2.1,1.1-3.7,3.2-3.7c2,0,2.8,1.4,2.8,3C101,7.3,101,7.5,101,7.8z M98.1,5.2c-0.8,0-1.4,0.6-1.6,1.6h3C99.6,5.8,99,5.2,98.1,5.2z
		"/>
	<path d="M107.3,11.3c-0.7,0-1.4-0.1-1.9-0.2l0.1-1.4c0.5,0.2,1.3,0.4,2,0.4c1,0,1.9-0.4,1.9-1.5c0-2-4.1-1.1-4.1-4.2
		c0-1.6,1.3-2.8,3.5-2.8c0.6,0,1.1,0.1,1.7,0.2l-0.1,1.4c-0.5-0.2-1.1-0.3-1.7-0.3c-1.2,0-1.8,0.5-1.8,1.3c0,1.9,4.1,1.2,4.1,4.1
		C110.9,10.1,109.5,11.3,107.3,11.3z"/>
	<path d="M115.1,11.3c-1.8,0-3.1-0.9-3.1-3.4c0-2.2,1.1-3.8,3.5-3.8c0.5,0,1.1,0.1,1.5,0.2l-0.2,1.3c-0.4-0.2-0.9-0.3-1.4-0.3
		c-1.3,0-1.9,0.9-1.9,2.4c0,1.3,0.5,2.2,1.8,2.2c0.5,0,1.1-0.1,1.5-0.3l0.1,1.3C116.6,11.1,115.9,11.3,115.1,11.3z"/>
	<path d="M122.9,11.2V6.7c0-0.9-0.2-1.4-1-1.4c-1.1,0-1.8,1.1-1.8,2.5v3.3h-1.5V1h1.5v3.2c0,0.4,0,1-0.1,1.4l0,0
		c0.4-0.9,1.2-1.4,2.4-1.4c1.6,0,2.1,1,2.1,2.2v4.9H122.9z"/>
	<path d="M129.1,11.3c-1.9,0-3.2-1.1-3.2-3.5c0-2.1,1.4-3.7,3.5-3.7c1.9,0,3.2,1,3.2,3.5C132.5,9.7,131.1,11.3,129.1,11.3z
		 M129.2,5.4c-0.9,0-1.8,0.7-1.8,2.3c0,1.6,0.6,2.4,1.8,2.4c1,0,1.8-0.8,1.8-2.4C131,6.2,130.4,5.4,129.2,5.4z"/>
	<path d="M136.7,11.3c-1.9,0-3.2-1.1-3.2-3.5c0-2.1,1.4-3.7,3.5-3.7c1.9,0,3.2,1,3.2,3.5C140.1,9.7,138.7,11.3,136.7,11.3z
		 M136.8,5.4c-0.9,0-1.8,0.7-1.8,2.3c0,1.6,0.6,2.4,1.8,2.4c1,0,1.8-0.8,1.8-2.4C138.6,6.2,138,5.4,136.8,5.4z"/>
	<path d="M141.6,11.2V1h1.5v10.2H141.6z"/>
	<path d="M67.6,27.3c-1.9,0-3.2-1.1-3.2-3.5c0-2.1,1.4-3.7,3.5-3.7c1.9,0,3.2,1,3.2,3.5C71.1,25.7,69.7,27.3,67.6,27.3z M67.8,21.4
		c-0.9,0-1.8,0.7-1.8,2.3c0,1.6,0.6,2.4,1.8,2.4c1,0,1.8-0.8,1.8-2.4C69.5,22.2,69,21.4,67.8,21.4z"/>
	<path d="M76.7,18.2c-0.3-0.1-0.6-0.1-1-0.1c-0.9,0-1.3,0.5-1.3,1.6v0.6h1.8v1.2h-1.8v5.8H73v-5.8h-1.3v-1.2H73v-0.5
		c0-1.9,0.9-2.8,2.7-2.8c0.4,0,0.8,0,1.1,0.1L76.7,18.2z"/>
	<path d="M87.5,19.4c-0.8-0.3-1.7-0.5-2.5-0.5c-1.9,0-3.4,1.2-3.4,3.6c0,2.2,1.2,3.5,3.3,3.5c0.5,0,1-0.1,1.5-0.2v-3.4h1.5v4.4
		c-0.9,0.4-2.1,0.6-3.2,0.6c-2.9,0-4.7-1.8-4.7-4.7c0-2.9,2-5.1,5.2-5.1c0.9,0,1.8,0.1,2.6,0.4L87.5,19.4z"/>
	<path d="M92.5,27.3c-1.9,0-3.2-1.1-3.2-3.5c0-2.1,1.4-3.7,3.5-3.7c1.9,0,3.2,1,3.2,3.5C96,25.7,94.6,27.3,92.5,27.3z M92.7,21.4
		c-0.9,0-1.8,0.7-1.8,2.3c0,1.6,0.6,2.4,1.8,2.4c1,0,1.8-0.8,1.8-2.4C94.4,22.2,93.8,21.4,92.7,21.4z"/>
	<path d="M100.5,27.2h-1.5l-2.6-7H98l1.3,3.7c0.2,0.5,0.3,1,0.4,1.4h0c0.1-0.4,0.3-0.9,0.4-1.4l1.3-3.7h1.6L100.5,27.2z"/>
	<path d="M109.4,23.8h-4.4c0,1.6,0.7,2.3,2.1,2.3c0.7,0,1.5-0.2,2-0.4l0.1,1.2c-0.7,0.3-1.6,0.4-2.4,0.4c-2.2,0-3.4-1.1-3.4-3.6
		c0-2.1,1.1-3.7,3.2-3.7c2,0,2.8,1.4,2.8,3C109.4,23.3,109.4,23.5,109.4,23.8z M106.5,21.2c-0.8,0-1.4,0.6-1.6,1.6h3
		C107.9,21.8,107.4,21.2,106.5,21.2z"/>
	<path d="M114.6,21.6c-1.4-0.3-2.1,0.7-2.1,2.8v2.8H111v-7h1.4c0,0.4,0,1-0.1,1.5h0c0.3-0.9,1-1.8,2.3-1.7L114.6,21.6z"/>
	<path d="M120.3,27.2v-4.5c0-0.9-0.2-1.4-1-1.4c-1.1,0-1.8,1.1-1.8,2.5v3.4h-1.5v-7h1.4c0,0.4,0,1-0.1,1.4l0,0
		c0.4-0.9,1.2-1.5,2.4-1.5c1.6,0,2.1,1,2.1,2.2v4.9H120.3z"/>
	<path d="M127.6,27.2c0-0.4,0-0.9,0.1-1.3l0,0c-0.3,0.8-1.2,1.4-2.3,1.4c-1.2,0-1.9-0.7-1.9-1.8c0-1.6,1.6-2.5,4.1-2.5v-0.4
		c0-0.9-0.4-1.3-1.5-1.3c-0.6,0-1.5,0.2-2.1,0.6l-0.1-1.3c0.7-0.3,1.6-0.5,2.5-0.5c2.1,0,2.7,0.9,2.7,2.4v2.8c0,0.6,0,1.3,0,1.9
		H127.6z M127.5,24c-2.2,0-2.7,0.7-2.7,1.3c0,0.5,0.4,0.9,1,0.9c1,0,1.7-1,1.7-2V24z"/>
	<path d="M135.4,27.2v-4.5c0-0.9-0.2-1.4-1-1.4c-1.1,0-1.8,1.1-1.8,2.5v3.4h-1.5v-7h1.4c0,0.4,0,1-0.1,1.4l0,0
		c0.4-0.9,1.2-1.5,2.4-1.5c1.6,0,2.1,1,2.1,2.2v4.9H135.4z"/>
	<path d="M141.6,27.3c-1.8,0-3.1-0.9-3.1-3.4c0-2.2,1.1-3.8,3.5-3.8c0.5,0,1,0.1,1.5,0.2l-0.2,1.3c-0.4-0.2-0.9-0.3-1.4-0.3
		c-1.3,0-1.9,0.9-1.9,2.4c0,1.3,0.5,2.2,1.8,2.2c0.5,0,1.1-0.1,1.5-0.3l0.1,1.3C143.1,27.1,142.3,27.3,141.6,27.3z"/>
	<path d="M150.4,23.8h-4.4c0,1.6,0.7,2.3,2.1,2.3c0.7,0,1.5-0.2,2-0.4l0.1,1.2c-0.7,0.3-1.6,0.4-2.4,0.4c-2.2,0-3.4-1.1-3.4-3.6
		c0-2.1,1.1-3.7,3.2-3.7c2,0,2.8,1.4,2.8,3C150.4,23.3,150.4,23.5,150.4,23.8z M147.5,21.2c-0.8,0-1.4,0.6-1.6,1.6h3
		C148.9,21.8,148.4,21.2,147.5,21.2z"/>
</g>
</svg>
